<svg  viewBox="0 0 33 16" fill="none" xmlns="http://www.w3.org/2000/svg">
<path d="M16.2794 2.65358C16.3224 2.69171 16.3524 2.74185 16.3655 2.79724C16.3785 2.85262 16.3739 2.9106 16.3523 2.96335L12.7632 14.7506C12.718 14.8793 12.6255 14.9869 12.5039 15.0525C12.4049 15.1173 12.2904 15.1557 12.1717 15.1637H0.764147C0.666725 15.1591 0.574429 15.1195 0.50488 15.0525C0.463507 15.0149 0.43447 14.9662 0.42148 14.9124C0.40849 14.8587 0.412148 14.8023 0.431965 14.7506L4.02924 2.96335C4.07068 2.83303 4.16024 2.72257 4.28039 2.65358C4.38098 2.59334 4.49496 2.55791 4.61257 2.55031H16.0201C16.1168 2.55123 16.2095 2.58815 16.2794 2.65358ZM10.3244 12.3757L12.4715 5.33827H6.45984L4.32089 12.3757H10.3244ZM27.1684 2.77271C27.2073 2.81706 27.256 2.85222 27.3107 2.8756C27.3654 2.89898 27.4247 2.90997 27.4844 2.90774H28.9671C29.0235 2.90829 29.0791 2.89471 29.1288 2.86831C29.1784 2.8419 29.2203 2.80353 29.2506 2.75683C29.2769 2.72035 29.2956 2.67905 29.3053 2.63538C29.315 2.59172 29.3157 2.54659 29.3073 2.50266L29.0157 0.405735C28.9879 0.308686 28.938 0.21907 28.8699 0.143618C28.8309 0.099275 28.7823 0.0641096 28.7276 0.0407321C28.6729 0.0173546 28.6135 0.00637059 28.5539 0.00858932H27.0712C27.0147 0.0080516 26.9591 0.021625 26.9095 0.0480304C26.8599 0.0744358 26.8179 0.112801 26.7876 0.159509C26.7309 0.270706 26.7066 0.342191 26.7309 0.405735L27.0307 2.50266C27.0461 2.60476 27.0943 2.69938 27.1684 2.77271ZM31.8757 0.389849C31.8479 0.292794 31.798 0.203179 31.7298 0.127732C31.6925 0.0835508 31.6453 0.0483958 31.5919 0.0249766C31.5386 0.00156253 31.4804 -0.00948411 31.422 -0.00729671H29.9312C29.8757 -0.0088472 29.8207 0.00436072 29.7722 0.030928C29.7237 0.0574952 29.6835 0.0964403 29.6557 0.143618C29.6018 0.214085 29.5785 0.302599 29.5909 0.389849L29.8907 2.48677C29.9095 2.5878 29.9572 2.68148 30.0284 2.75683C30.068 2.8003 30.1168 2.83488 30.1714 2.85818C30.2259 2.88149 30.2849 2.89297 30.3444 2.89185H31.8352C31.8906 2.89257 31.9451 2.87901 31.9934 2.85253C32.0418 2.82604 32.0822 2.78757 32.1106 2.74095C32.1388 2.70541 32.1585 2.66413 32.1683 2.62015C32.1782 2.57617 32.1778 2.5306 32.1673 2.48677L31.8757 0.389849ZM25.864 3.56701L25.7181 2.53443H18.5317C18.4189 2.54053 18.3097 2.57619 18.2157 2.63769C18.1561 2.66959 18.1041 2.71381 18.0636 2.76729C18.023 2.82077 17.9948 2.88224 17.9808 2.94746L17.3813 4.91728C17.3573 4.96651 17.3491 5.02175 17.3578 5.07562C17.3665 5.1295 17.3916 5.17951 17.4299 5.21913C17.4982 5.28209 17.5874 5.31879 17.681 5.3224H26.415L24.2679 12.3598H15.5583C15.446 12.3623 15.3366 12.3953 15.2424 12.4551C15.1278 12.5265 15.0441 12.6368 15.0074 12.7649L14.3997 14.7347C14.3799 14.7853 14.3747 14.8402 14.3847 14.8934C14.3947 14.9467 14.4195 14.9962 14.4564 15.0365C14.5226 15.1037 14.6125 15.1435 14.7076 15.1477H26.1476C26.2659 15.1378 26.3799 15.0996 26.4797 15.0365C26.5994 14.9706 26.6891 14.8628 26.7309 14.7347L30.0203 3.96415H26.3177C26.259 3.96528 26.2006 3.95459 26.1463 3.93273C26.0919 3.91088 26.0428 3.87831 26.0018 3.83706C25.9348 3.76503 25.8874 3.67762 25.864 3.58289V3.56701Z" fill="white"/>
</svg>
