<svg viewBox="0 0 29 20" fill="none" xmlns="http://www.w3.org/2000/svg">
<g clip-path="url(#clip0_211_2073)">
<path d="M27.0806 1.24124C27.0806 1.5656 27.3468 1.82855 27.6752 1.82855H28.2697C28.5981 1.82855 28.8643 1.5656 28.8643 1.24124C28.8643 0.916878 28.5981 0.653931 28.2697 0.653931H27.6752C27.3468 0.653931 27.0806 0.916878 27.0806 1.24124Z" fill="#212326"/>
<path d="M9.83839 19.4478H12.7267L11.8858 18.6172C11.6628 18.3969 11.3604 18.2732 11.045 18.2732H9.83839C5.24126 18.2732 1.51456 14.5919 1.51456 10.0509C1.51456 5.5098 5.24126 1.82855 9.83839 1.82855H19.3513C23.9485 1.82855 27.6752 5.5098 27.6752 10.0509C27.6752 14.5919 23.9485 18.2732 19.3513 18.2732H15.7927C15.3197 18.2732 14.866 18.0876 14.5315 17.7572L13.5464 16.7841C12.9889 16.2333 12.2327 15.924 11.4443 15.924H9.83839C6.55471 15.924 3.8928 13.2945 3.8928 10.0509C3.8928 6.80723 6.55471 4.17778 9.83839 4.17778H19.3513C22.635 4.17778 25.2969 6.80723 25.2969 10.0509C25.2969 13.2945 22.635 15.924 19.3513 15.924H17.0664C16.5933 15.924 16.1396 15.7383 15.8051 15.4079L14.82 14.4348C14.2625 13.8841 13.5063 13.5747 12.7179 13.5747H9.83839C7.86821 13.5747 6.27103 11.997 6.27103 10.0509C6.27103 8.10472 7.86821 6.52702 9.83839 6.52702H19.3513C21.3215 6.52702 22.9187 8.10472 22.9187 10.0509C22.9187 11.9733 21.3602 13.5362 19.4233 13.574L19.4229 13.5747H18.5528C18.0797 13.5747 17.626 13.3891 17.2915 13.0587L16.3064 12.0856C15.849 11.6337 15.2578 11.3443 14.6247 11.255L14.5949 11.2255H9.83839C9.18166 11.2255 8.64927 10.6996 8.64927 10.0509C8.64927 9.40215 9.18166 8.87625 9.83839 8.87625H19.3513C20.0081 8.87625 20.5405 9.40215 20.5405 10.0509C20.5405 10.6996 20.0081 11.2255 19.3513 11.2255H16.9731L17.814 12.0561C18.0369 12.2763 18.3394 12.4001 18.6548 12.4001H19.3513C20.6648 12.4001 21.7296 11.3483 21.7296 10.0509C21.7296 8.75343 20.6648 7.70163 19.3513 7.70163H9.83839C8.52494 7.70163 7.46015 8.75343 7.46015 10.0509C7.46015 11.3483 8.52494 12.4001 9.83839 12.4001H14.2043C14.6774 12.4001 15.1311 12.5857 15.4656 12.9161L16.4507 13.8892C17.0082 14.4399 17.7643 14.7493 18.5528 14.7493H19.6486V14.7403C22.1371 14.5887 24.1078 12.5471 24.1078 10.0509C24.1078 7.456 21.9782 5.3524 19.3513 5.3524H9.83839C7.21148 5.3524 5.08191 7.456 5.08191 10.0509C5.08191 12.6458 7.21148 14.7493 9.83839 14.7493H12.7179C13.191 14.7493 13.6447 14.935 13.9792 15.2654L14.9643 16.2385C15.5218 16.7892 16.2779 17.0986 17.0664 17.0986H19.3513C23.2917 17.0986 26.4861 13.9432 26.4861 10.0509C26.4861 6.15852 23.2917 3.00317 19.3513 3.00317H9.83839C5.89798 3.00317 2.70368 6.15852 2.70368 10.0509C2.70368 13.9432 5.89798 17.0986 9.83839 17.0986H11.4443C11.9173 17.0986 12.371 17.2842 12.7055 17.6146L13.6907 18.5877C14.2482 19.1384 15.0043 19.4478 15.7927 19.4478H19.3513C24.6052 19.4478 28.8643 15.2407 28.8643 10.0509C28.8643 4.86108 24.6052 0.65393 19.3513 0.653931L9.83839 0.653933C4.58453 0.653933 0.325439 4.86109 0.325439 10.0509C0.32544 15.2407 4.58453 19.4478 9.83839 19.4478Z" fill="#212326"/>
</g>
<defs>
<clipPath id="clip0_211_2073">
<rect width="28.5388" height="18.7939" fill="white" transform="translate(0.325439 0.653931)"/>
</clipPath>
</defs>
</svg>
