<svg  viewBox="0 0 37 34" fill="none" xmlns="http://www.w3.org/2000/svg">
<g clip-path="url(#clip0_211_2076)">
<path d="M8.81748 9.74207C7.40395 9.74207 6.04833 10.3036 5.04882 11.3031L1.78683 14.5651C0.787319 15.5646 0.2258 16.9202 0.2258 18.3337C0.2258 21.2773 2.61199 23.6635 5.55551 23.6635C6.96904 23.6635 8.32466 23.1019 9.32417 22.1024L11.5805 19.8461C11.5805 19.846 11.5805 19.8461 11.5805 19.8461L18.1547 13.2719C18.6321 12.7945 19.2795 12.5263 19.9546 12.5263C21.0848 12.5263 22.043 13.263 22.3752 14.2823L24.45 12.2075C23.5035 10.7251 21.8439 9.74207 19.9546 9.74207C18.5411 9.74207 17.1854 10.3036 16.1859 11.3031L7.35541 20.1336C6.87804 20.611 6.23061 20.8792 5.55551 20.8792C4.1497 20.8792 3.01008 19.7396 3.01008 18.3337C3.01008 17.6586 3.27825 17.0112 3.75561 16.5338L7.01758 13.2719C7.49495 12.7945 8.14238 12.5263 8.81748 12.5263C9.94775 12.5263 10.9059 13.263 11.2381 14.2824L13.313 12.2076C12.3665 10.7251 10.7068 9.74207 8.81748 9.74207Z" fill="#394149"/>
<path d="M18.4925 20.1336C18.0152 20.611 17.3677 20.8792 16.6926 20.8792C15.5625 20.8792 14.6044 20.1427 14.2721 19.1236L12.1974 21.1983C13.1439 22.6806 14.8035 23.6635 16.6926 23.6635C18.1062 23.6635 19.4618 23.1019 20.4613 22.1024L29.2918 13.2719C29.7692 12.7945 30.4166 12.5263 31.0917 12.5263C32.4975 12.5263 33.6371 13.666 33.6371 15.0718C33.6371 15.7469 33.369 16.3943 32.8916 16.8717L29.6296 20.1336C29.1523 20.611 28.5048 20.8792 27.8297 20.8792C26.6995 20.8792 25.7414 20.1426 25.4091 19.1233L23.3344 21.1981C24.2809 22.6805 25.9405 23.6635 27.8297 23.6635C29.2433 23.6635 30.5989 23.1019 31.5984 22.1024L34.8604 18.8404C35.8599 17.8409 36.4214 16.4853 36.4214 15.0718C36.4214 12.1283 34.0352 9.74207 31.0917 9.74207C29.6782 9.74207 28.3225 10.3036 27.323 11.3031L18.4925 20.1336Z" fill="#394149"/>
</g>
<defs>
<clipPath id="clip0_211_2076">
<rect width="36.1956" height="13.9214" fill="white" transform="translate(0.2258 9.74207)"/>
</clipPath>
</defs>
</svg>
