<svg viewBox="0 0 39 22" fill="none" xmlns="http://www.w3.org/2000/svg">
<g clip-path="url(#clip0_211_2053)">
<path d="M38.5802 7.68854C38.5842 7.65951 38.5842 7.63017 38.5802 7.60114C38.584 7.5775 38.584 7.55338 38.5802 7.52968L38.2966 5.48835C38.2557 5.24413 38.1463 5.01586 37.9807 4.82909L37.932 4.77349L37.8429 4.68611L32.9331 0.53992L33.0709 0.67496C32.9582 0.542788 32.8167 0.437068 32.6569 0.365588C32.4971 0.294107 32.3229 0.258682 32.1473 0.261926H30.6565C30.4141 0.257218 30.1772 0.332777 29.984 0.476388C29.7812 0.333642 29.5369 0.258469 29.2872 0.261926H27.7965C27.601 0.258816 27.4081 0.306388 27.2374 0.399839C27.0666 0.493289 26.9241 0.6293 26.8243 0.794097C26.6703 1.02947 26.6124 1.31307 26.6622 1.58839L26.8486 2.87513C26.7251 2.80652 26.5854 2.77093 26.4435 2.77189H19.2246C18.9656 2.77348 18.7126 2.8479 18.4954 2.98633C18.2854 3.11519 18.1169 3.29969 18.0093 3.5185L17.4503 3.04988C17.2302 2.85029 16.9398 2.74211 16.6401 2.74805H5.31354C5.05362 2.7527 4.79947 2.82388 4.57628 2.95457C4.27094 3.12978 4.04716 3.41467 3.95241 3.74885L0.355144 15.5441C0.28793 15.7384 0.281318 15.948 0.336155 16.1461C0.390992 16.3441 0.504794 16.5217 0.663022 16.6561C0.704252 16.6903 0.747543 16.7222 0.792657 16.7514C0.792657 16.7514 0.719727 16.7037 0.679217 16.664L5.58903 20.8181C5.79672 21.0056 6.06827 21.1104 6.35056 21.112H17.7663C18.027 21.1054 18.2813 21.0314 18.5035 20.8976C18.6292 20.8302 18.7417 20.7415 18.8357 20.6354L18.8762 20.5798L18.941 20.5004L18.9896 20.413L19.5244 20.8658C19.7291 21.0458 19.9948 21.1448 20.2698 21.1438H31.7097C31.9701 21.1353 32.224 21.0615 32.447 20.9293C32.5699 20.8579 32.6817 20.7696 32.7792 20.6672L32.8197 20.6116L32.8845 20.5322C32.9189 20.4819 32.9488 20.4288 32.9736 20.3733C33.0001 20.3252 33.0218 20.2746 33.0384 20.2224L36.3197 9.45187V9.35655C36.3238 9.31958 36.3238 9.28231 36.3197 9.24535V9.17388C36.3237 9.15018 36.3237 9.12606 36.3197 9.10236C36.3234 9.05214 36.3234 9.00171 36.3197 8.95143H37.373C37.4646 8.95968 37.5568 8.95968 37.6484 8.95143H37.7214C37.7807 8.9341 37.8378 8.91009 37.8915 8.87996H37.9726L38.1184 8.76877L38.1832 8.7211L38.2966 8.57811V8.5305L38.3776 8.39545C38.3731 8.36919 38.3731 8.3423 38.3776 8.31604C38.3733 8.30315 38.3733 8.28921 38.3776 8.27631C38.3949 8.22975 38.4084 8.18193 38.4182 8.13333C38.4144 8.11766 38.4144 8.10132 38.4182 8.08566C38.4142 8.06201 38.4142 8.03784 38.4182 8.01419C38.4182 8.01419 38.5802 7.70441 38.5802 7.68854Z" fill="black"/>
<path d="M16.9723 3.65358C17.0153 3.69171 17.0453 3.74185 17.0584 3.79724C17.0714 3.85262 17.0668 3.9106 17.0452 3.96335L13.4561 15.7506C13.4109 15.8793 13.3184 15.9869 13.1968 16.0525C13.0978 16.1173 12.9833 16.1557 12.8646 16.1637H1.45705C1.35963 16.1591 1.26733 16.1195 1.19778 16.0525C1.15641 16.0149 1.12737 15.9662 1.11438 15.9124C1.10139 15.8587 1.10505 15.8023 1.12487 15.7506L4.72214 3.96335C4.76358 3.83303 4.85314 3.72257 4.97329 3.65358C5.07388 3.59334 5.18787 3.55791 5.30548 3.55031H16.713C16.8097 3.55123 16.9024 3.58815 16.9723 3.65358ZM11.0173 13.3757L13.1644 6.33827H7.15274L5.0138 13.3757H11.0173ZM27.8613 3.77271C27.9002 3.81706 27.9489 3.85222 28.0036 3.8756C28.0583 3.89898 28.1177 3.90997 28.1773 3.90774H29.66C29.7164 3.90829 29.772 3.89471 29.8217 3.86831C29.8713 3.8419 29.9132 3.80353 29.9435 3.75683C29.9698 3.72035 29.9885 3.67905 29.9982 3.63538C30.0079 3.59172 30.0086 3.54659 30.0002 3.50266L29.7086 1.40574C29.6808 1.30869 29.6309 1.21907 29.5628 1.14362C29.5238 1.09928 29.4752 1.06411 29.4205 1.04073C29.3658 1.01735 29.3064 1.00637 29.2468 1.00859H27.7641C27.7076 1.00805 27.652 1.02162 27.6024 1.04803C27.5528 1.07444 27.5108 1.1128 27.4805 1.15951C27.4238 1.27071 27.3995 1.34219 27.4238 1.40574L27.7236 3.50266C27.739 3.60476 27.7872 3.69938 27.8613 3.77271ZM32.5686 1.38985C32.5408 1.29279 32.4909 1.20318 32.4227 1.12773C32.3854 1.08355 32.3382 1.0484 32.2848 1.02498C32.2315 1.00156 32.1733 0.990516 32.1149 0.992703H30.6241C30.5686 0.991153 30.5136 1.00436 30.4651 1.03093C30.4166 1.0575 30.3764 1.09644 30.3486 1.14362C30.2947 1.21408 30.2714 1.3026 30.2838 1.38985L30.5836 3.48677C30.6024 3.5878 30.6501 3.68148 30.7213 3.75683C30.7609 3.8003 30.8097 3.83488 30.8643 3.85818C30.9188 3.88149 30.9778 3.89297 31.0373 3.89185H32.5281C32.5835 3.89257 32.638 3.87901 32.6863 3.85253C32.7347 3.82604 32.7751 3.78757 32.8035 3.74095C32.8317 3.70541 32.8514 3.66413 32.8612 3.62015C32.8711 3.57617 32.8707 3.5306 32.8602 3.48677L32.5686 1.38985ZM26.5569 4.56701L26.411 3.53443H19.2246C19.1118 3.54053 19.0026 3.57619 18.9086 3.63769C18.849 3.66959 18.797 3.71381 18.7565 3.76729C18.7159 3.82077 18.6877 3.88224 18.6737 3.94746L18.0742 5.91728C18.0502 5.96651 18.042 6.02175 18.0507 6.07562C18.0594 6.1295 18.0845 6.17951 18.1228 6.21913C18.1911 6.28209 18.2803 6.31879 18.3739 6.3224H27.1079L24.9608 13.3598H16.2512C16.1389 13.3623 16.0295 13.3953 15.9353 13.4551C15.8207 13.5265 15.737 13.6368 15.7003 13.7649L15.0926 15.7347C15.0728 15.7853 15.0676 15.8402 15.0776 15.8934C15.0876 15.9467 15.1124 15.9962 15.1493 16.0365C15.2155 16.1037 15.3054 16.1435 15.4005 16.1477H26.8405C26.9588 16.1378 27.0728 16.0996 27.1726 16.0365C27.2923 15.9706 27.382 15.8628 27.4238 15.7347L30.7132 4.96415H27.0106C26.9519 4.96528 26.8935 4.95459 26.8392 4.93273C26.7848 4.91088 26.7357 4.87831 26.6947 4.83706C26.6277 4.76503 26.5803 4.67762 26.5569 4.58289V4.56701Z" fill="white"/>
</g>
<defs>
<clipPath id="clip0_211_2053">
<rect width="38.2838" height="20.8821" fill="white" transform="translate(0.299377 0.261719)"/>
</clipPath>
</defs>
</svg>
