<svg  viewBox="0 0 34 34" fill="none" xmlns="http://www.w3.org/2000/svg">
<g clip-path="url(#clip0_211_2056)">
<path d="M31.7852 9.43908C31.7852 9.46262 31.7852 9.49204 31.779 9.50969C31.7484 9.73918 31.7484 9.96866 31.7667 10.204C31.779 10.2629 31.7913 10.3217 31.8403 10.3688C31.92 10.457 32.0426 10.4394 32.0917 10.3335C32.1162 10.2805 32.1162 10.2276 32.1039 10.1746C32.0426 9.95101 32.0304 9.71564 32.0243 9.48615C32.0243 9.47439 32.0243 9.45673 32.0243 9.43908C32.0917 9.4332 32.153 9.42731 32.2082 9.42731C32.2511 9.42143 32.2879 9.41554 32.3186 9.39789C32.4105 9.35082 32.4105 9.25079 32.3124 9.20372C32.2756 9.18606 32.2266 9.18018 32.1837 9.18018C32.0304 9.18606 31.8771 9.18606 31.7238 9.18606C31.6687 9.18606 31.6135 9.19195 31.5583 9.19783C31.5276 9.20372 31.4909 9.20372 31.4664 9.22137C31.4234 9.23902 31.3989 9.26844 31.3989 9.30963C31.405 9.35082 31.4234 9.37436 31.4664 9.39201C31.4909 9.40966 31.5215 9.41554 31.5522 9.41554C31.6257 9.42143 31.7055 9.4332 31.7852 9.43908ZM33.4711 9.70976C33.4711 9.71564 33.4772 9.72152 33.4772 9.72152C33.5018 9.8804 33.5263 10.0334 33.5447 10.1864C33.5508 10.2393 33.557 10.2864 33.5937 10.3276C33.6734 10.4276 33.7961 10.4159 33.8512 10.3099C33.8758 10.257 33.8819 10.204 33.8696 10.1452C33.8328 9.96866 33.8144 9.79213 33.7777 9.62149C33.7531 9.51558 33.7225 9.41554 33.6918 9.3214C33.6734 9.26256 33.6305 9.22136 33.557 9.21548C33.4834 9.20372 33.4282 9.23902 33.3975 9.29198C33.3608 9.33905 33.3301 9.38612 33.3056 9.43908C33.2627 9.53323 33.2259 9.62738 33.1769 9.71564C33.1707 9.73918 33.1646 9.75683 33.1523 9.77448C33.1462 9.76271 33.1401 9.75683 33.1401 9.75683C33.0603 9.60972 32.9868 9.46262 32.9071 9.3214C32.8948 9.30963 32.8887 9.29786 32.8826 9.28609C32.8458 9.23314 32.8029 9.20372 32.7354 9.20372C32.6741 9.2096 32.625 9.2449 32.5944 9.29786C32.5821 9.3214 32.5821 9.33905 32.576 9.36259C32.5515 9.55088 32.5208 9.73918 32.4963 9.92747C32.484 10.0334 32.4779 10.1393 32.4779 10.2452C32.4718 10.2688 32.4779 10.2982 32.4902 10.3217C32.5025 10.3688 32.5392 10.3982 32.5883 10.4041C32.6496 10.41 32.6925 10.3923 32.7109 10.3452C32.7293 10.3099 32.7354 10.2805 32.7416 10.2511C32.7661 10.1452 32.7845 10.0452 32.8029 9.94512C32.8151 9.88628 32.8212 9.83921 32.8397 9.77448C32.8519 9.79802 32.8641 9.81567 32.8764 9.83332C32.9316 9.90394 32.9868 9.97455 33.0542 10.0334C33.1217 10.0805 33.1769 10.0746 33.232 10.0216C33.2443 10.0098 33.2504 10.004 33.2627 9.99219C33.3179 9.90982 33.3853 9.82744 33.4405 9.74506C33.4527 9.73329 33.4589 9.72152 33.4711 9.70976Z" fill="#3A3B7B"/>
<path d="M19.3449 9.55463C19.3023 9.66645 19.2941 9.74702 19.3138 9.81398C19.3355 9.90504 19.392 9.93485 19.4685 9.91169C20.1886 9.74078 21.7677 10.2259 22.3523 10.3611C22.4902 10.3895 22.6024 10.2187 22.5083 10.0655C22.371 9.91718 20.7926 9.28216 20.1903 9.24754C19.9543 9.23473 19.5323 9.17663 19.3449 9.55463Z" fill="#3A3B7B"/>
<path d="M25.5161 7.49899C25.5929 7.54151 25.6358 7.58206 25.657 7.62738C25.6885 7.68682 25.6719 7.72794 25.6189 7.74892C25.1429 7.9719 24.5094 8.93184 24.2538 9.26291C24.1918 9.33907 24.0488 9.29482 24.0272 9.16957C24.0317 9.02796 24.5931 7.98621 24.9065 7.70247C25.0297 7.59169 25.2331 7.37433 25.5161 7.49899Z" fill="#3A3B7B"/>
<path d="M21.7254 7.02649C21.8176 6.95979 21.9134 6.93642 21.9623 6.97976C22.6805 7.56926 23.0614 8.50279 23.2972 9.35741C23.3061 9.37732 23.3067 9.40589 23.2996 9.4357C23.2966 9.46117 23.2772 9.48809 23.2464 9.50891C23.2135 9.5319 23.1852 9.5389 23.1719 9.51909C22.8571 9.10818 21.0593 7.5094 21.7254 7.02649Z" fill="#3A3B7B"/>
<path d="M6.51689 17.2469C6.68901 17.1239 6.87615 17.0215 7.07417 16.9421C7.28135 16.8852 7.50218 16.8946 7.70328 16.969C7.90434 17.0433 8.07479 17.1784 8.18873 17.3539C8.29066 17.529 8.33053 17.7311 8.30239 17.9299C8.27426 18.1285 8.17962 18.3131 8.03268 18.4557C7.91878 18.5714 7.78946 18.6721 7.64818 18.7553C7.01846 19.1457 6.38313 19.5148 5.74783 19.9052C5.61783 20.003 5.47993 20.0906 5.33543 20.1673C5.11565 20.2725 4.86447 20.3007 4.62533 20.247C4.38619 20.1933 4.17413 20.061 4.02581 19.8732C3.91494 19.7401 3.82137 19.5946 3.74717 19.4399C3.1453 18.2258 2.52115 17.0169 1.94157 15.7814C1.67407 15.2465 1.45673 14.6314 1.24496 14.0377C1.15334 13.8652 1.13545 13.6652 1.19509 13.4803C1.25474 13.2953 1.38722 13.1399 1.56436 13.0473C1.74149 12.9546 1.9493 12.9319 2.14359 12.9841C2.33788 13.0362 2.50332 13.159 2.60473 13.3263C2.91644 13.7239 3.19236 14.1462 3.42952 14.5887C4.03138 15.6584 4.60539 16.7281 5.18497 17.7658C5.21872 17.8231 5.25593 17.8784 5.29642 17.9316C5.73265 17.7555 6.14295 17.5254 6.51689 17.2469Z" fill="#3A3B7B"/>
<path d="M12.7398 16.8738C11.3634 18.4195 9.05619 18.0291 7.89704 16.0394C7.07224 14.6273 6.92736 12.2953 8.72184 10.8244C9.10503 10.5164 9.56323 10.3067 10.0537 10.2146C10.6551 10.1319 11.2684 10.2337 11.8059 10.5056C12.3433 10.7774 12.7775 11.2054 13.0464 11.7283C14.0272 13.4399 13.8879 15.6222 12.7398 16.8738ZM12.1826 13.2687C12.0363 12.8481 11.743 12.4891 11.3522 12.2525C11.1311 12.1012 10.8624 12.0277 10.5914 12.0442C10.3204 12.0608 10.0636 12.1665 9.86426 12.3434C9.06736 13.0227 8.90014 14.6327 9.47971 15.5901C9.5536 15.7462 9.66208 15.8849 9.79766 15.9966C9.93324 16.1083 10.0926 16.1902 10.2646 16.2365C10.4366 16.2829 10.617 16.2926 10.7934 16.265C10.9697 16.2374 11.1376 16.1732 11.2854 16.0768C11.7173 15.7553 12.0343 15.3127 12.192 14.8105C12.3499 14.3081 12.3407 13.7711 12.1659 13.2741L12.1826 13.2687Z" fill="#3A3B7B"/>
<path d="M18.3572 13.9426C18.2163 13.9717 18.0707 13.9734 17.9291 13.9477C17.7875 13.922 17.6526 13.8693 17.5325 13.7929C17.4274 13.7352 17.3369 13.6558 17.2675 13.5605C17.1982 13.4653 17.1518 13.3564 17.1315 13.2418C17.1113 13.1273 17.1177 13.0098 17.1504 12.8979C17.1831 12.786 17.2413 12.6825 17.3207 12.5947C17.4591 12.4184 17.6554 12.2921 17.878 12.2364C18.4591 12.0745 19.0573 11.9759 19.6613 11.9422C19.794 11.9274 19.9285 11.9382 20.0568 11.9739C20.1851 12.0097 20.3047 12.0697 20.4085 12.1504C20.5123 12.2311 20.5983 12.3309 20.6614 12.444C20.7245 12.557 20.7634 12.681 20.7759 12.8087C20.95 13.4359 20.9691 14.0934 20.8316 14.7289C20.3301 16.7828 18.6025 17.4888 16.6631 16.8309C16.1187 16.655 15.6414 16.3273 15.2922 15.8896C14.8264 15.3624 14.4962 14.7377 14.3281 14.0657C14.1919 13.4672 14.2068 12.8462 14.3716 12.2544C14.5364 11.6626 14.8463 11.1173 15.2755 10.6639C15.6827 10.1711 16.2113 9.78324 16.8136 9.5353C17.1942 9.33397 17.6395 9.27672 18.0619 9.37484C18.1577 9.40029 18.2447 9.44988 18.3138 9.51848C18.3829 9.58707 18.4317 9.67216 18.455 9.76493C18.4783 9.85769 18.4753 9.95475 18.4464 10.0461C18.4174 10.1373 18.3636 10.2195 18.2904 10.2841C18.1512 10.405 18 10.5125 17.839 10.605C17.3435 10.9079 16.9124 11.2981 16.5684 11.755C16.3429 12.0507 16.1876 12.3902 16.1134 12.7497C16.0393 13.1091 16.0481 13.4798 16.1393 13.8357C16.2657 14.3209 16.5461 14.7564 16.9417 15.0819C18.1678 16.1517 19.7616 15.1193 19.483 13.6591C19.0762 13.7554 18.7195 13.8571 18.3572 13.9426Z" fill="#3A3B7B"/>
<path d="M25.8473 16.9594C24.0361 18.0291 21.9742 16.9594 21.5227 14.7129C21.194 13.1083 21.8181 10.8619 24.0027 10.0061C24.4675 9.82791 24.9716 9.76536 25.4683 9.82422C26.0651 9.92907 26.6126 10.211 27.0335 10.6304C27.4544 11.0497 27.7276 11.5853 27.8145 12.1616C28.1823 14.0711 27.3464 16.1089 25.8473 16.9594ZM26.4771 13.3597C26.4765 12.9154 26.3127 12.4854 26.0145 12.1456C25.8551 11.9353 25.6246 11.7847 25.3624 11.7194C25.1002 11.654 24.8225 11.678 24.5767 11.7872C23.5959 12.1937 22.9048 13.6699 23.1556 14.7557C23.1748 14.9261 23.2324 15.0905 23.3247 15.2372C23.4169 15.384 23.5414 15.5096 23.6895 15.6054C23.8375 15.7012 24.0056 15.7648 24.182 15.7917C24.3584 15.8186 24.5387 15.8082 24.7104 15.7613C25.2289 15.5874 25.6778 15.2626 25.9945 14.832C26.3112 14.4015 26.4799 13.8867 26.4771 13.3597Z" fill="#3A3B7B"/>
<path d="M29.646 17.4086C29.6187 17.6044 29.5115 17.7817 29.3479 17.9016C29.1843 18.0214 28.9779 18.0741 28.7739 18.0478C28.5699 18.0216 28.3852 17.9186 28.2603 17.7616C28.1354 17.6047 28.0806 17.4065 28.108 17.2107C28.1353 17.015 28.2426 16.8377 28.4061 16.7178C28.5697 16.5979 28.7761 16.5453 28.9801 16.5716C29.1841 16.5978 29.3688 16.7007 29.4937 16.8577C29.6186 17.0147 29.6734 17.2129 29.646 17.4086ZM29.1612 10.1932C29.2672 10.0379 29.4227 9.91956 29.6045 9.85594C29.7863 9.79232 29.9846 9.78681 30.1699 9.84022C30.3583 9.88546 30.5247 9.99144 30.6414 10.1404C30.7581 10.2894 30.8179 10.4723 30.8108 10.6586C30.7862 10.9573 30.7397 11.254 30.6715 11.5464C30.4876 12.536 30.3092 13.5255 30.1142 14.5043C30.025 14.8948 29.908 15.2692 29.7798 15.6649C29.7352 15.7887 29.6607 15.9005 29.5625 15.9912C29.5014 16.0595 29.4234 16.1118 29.3356 16.1434C29.2479 16.1751 29.1532 16.185 29.0604 16.1722C28.9677 16.1594 28.8797 16.1243 28.8048 16.0703C28.7299 16.0162 28.6704 15.9448 28.6318 15.8629C28.5656 15.7158 28.5296 15.5577 28.5259 15.3975C28.5259 14.7343 28.5259 14.0657 28.5705 13.3971C28.6463 12.4429 28.7953 11.4954 29.0163 10.5623C29.0424 10.4373 29.0914 10.3177 29.1612 10.2093V10.1932Z" fill="#3A3B7B"/>
<path fill-rule="evenodd" clip-rule="evenodd" d="M4.16231 21.7068C4.09651 21.8478 4.07847 22.0049 4.11062 22.1562C4.13201 22.3556 4.179 22.5517 4.2505 22.7401C4.33978 22.9707 4.43968 23.1988 4.56285 23.48C4.59118 23.5447 4.62078 23.6122 4.65176 23.6833C4.81787 24.0641 5.02629 24.5509 5.3043 25.2553C5.38299 25.4555 5.45287 25.6572 5.52323 25.8604C5.55166 25.9424 5.58019 26.0248 5.60939 26.1073C5.71406 26.4008 5.89416 26.6644 6.13289 26.8733C6.23426 26.9881 6.36872 27.0718 6.51949 27.1136C6.6732 27.1563 6.83669 27.1536 6.98877 27.1059C7.14084 27.0581 7.27442 26.9676 7.37214 26.846C7.46795 26.7267 7.52492 26.583 7.536 26.4329C7.59816 26.1405 7.57694 25.8373 7.47449 25.5554C7.3119 25.0873 7.12668 24.6185 6.9131 24.16L6.91212 24.158C6.56076 23.4407 6.2036 22.7283 5.82954 22.0156L5.82674 22.0106C5.71724 21.825 5.57493 21.659 5.40622 21.5201C5.29668 21.3962 5.1456 21.3126 4.97875 21.2838C4.80835 21.2544 4.6326 21.2841 4.48289 21.3675C4.34126 21.4451 4.22899 21.5639 4.16231 21.7068Z" fill="#3A3B7B"/>
<path fill-rule="evenodd" clip-rule="evenodd" d="M9.52889 19.9404C8.97797 19.8034 8.4026 19.7835 7.84289 19.8819C7.40936 19.9229 6.98299 20.0189 6.68692 20.209C6.53633 20.3057 6.41459 20.43 6.34686 20.5879C6.27877 20.7467 6.27008 20.9283 6.32588 21.1306C6.42776 21.5012 6.56007 21.8615 6.69192 22.2207L6.71328 22.2788L6.71379 22.2801C7.11077 23.3236 7.51153 24.3635 7.91594 25.3998C7.96309 25.5631 8.02978 25.7206 8.11466 25.8692L8.11625 25.872C8.22837 26.0566 8.37217 26.2217 8.54159 26.3604C8.62632 26.4367 8.73111 26.4894 8.84472 26.513C8.95946 26.5368 9.07878 26.5299 9.18968 26.493C9.30063 26.4562 9.39887 26.3908 9.47374 26.304C9.5474 26.2186 9.59563 26.1157 9.61334 26.0063C9.68644 25.7089 9.66302 25.3972 9.54618 25.1129C9.50973 25.0173 9.48113 24.9195 9.45098 24.8166C9.44093 24.7823 9.43075 24.7474 9.42 24.7118C10.3457 24.3645 11.3307 23.8975 11.677 22.8112C11.8127 22.4357 11.824 22.0292 11.7094 21.6473C11.5947 21.265 11.3594 20.9262 11.0359 20.6774C10.5956 20.3292 10.0812 20.0776 9.52889 19.9404ZM8.00179 21.2729C8.02002 21.2678 8.03838 21.2632 8.0568 21.2588C8.65946 21.1679 9.27605 21.289 9.79304 21.5999C10.0209 21.752 10.1142 21.9209 10.1302 22.0835C10.1468 22.2509 10.0834 22.4323 9.95597 22.6067C9.71523 22.9361 9.27591 23.1998 8.87907 23.2489C8.58978 22.6095 8.29599 21.9442 8.00179 21.2729Z" fill="#3A3B7B"/>
<path d="M13.2018 18.7699C13.8579 18.4791 14.6706 18.4288 15.3065 18.6333C15.4667 18.6781 15.6057 18.7749 15.6996 18.9073C15.793 19.0388 15.8361 19.1973 15.8217 19.3558C15.8208 19.4587 15.7945 19.5599 15.745 19.6512C15.6946 19.7441 15.6216 19.824 15.5323 19.8842C15.4429 19.9444 15.3398 19.983 15.2316 19.9968C15.1233 20.0107 15.0133 19.9993 14.9106 19.9637L14.9028 19.961L14.8955 19.9572C14.8429 19.9309 14.7871 19.911 14.7294 19.8981L14.7258 19.8973C14.2784 19.7832 13.8564 19.9722 13.7023 20.2044C13.6288 20.3151 13.6196 20.4268 13.6809 20.5285C13.7464 20.6374 13.9073 20.7595 14.2327 20.8466C14.3222 20.8702 14.4139 20.893 14.507 20.9161C14.7643 20.98 15.0317 21.0465 15.2903 21.1385L15.2913 21.1389C16.4843 21.5746 16.9285 22.4768 16.7764 23.3255C16.626 24.1647 15.8957 24.9285 14.7976 25.1086C14.398 25.1936 13.9821 25.1771 13.5912 25.0606C13.1993 24.9437 12.846 24.7305 12.5665 24.4421L12.5592 24.4345C12.4709 24.3259 12.4116 24.1982 12.3853 24.0627C12.361 23.9404 12.3738 23.8141 12.4219 23.6985C12.4698 23.5837 12.5507 23.4842 12.6552 23.4118C12.7655 23.3297 12.8986 23.2804 13.0378 23.2701C13.1765 23.2599 13.3154 23.2889 13.4372 23.3534C13.5589 23.4098 13.6721 23.4818 13.7737 23.5674L13.7757 23.5689C13.9554 23.7267 14.1729 23.7678 14.3814 23.7297C14.593 23.6911 14.7919 23.571 14.9199 23.4115C15.047 23.2531 15.0981 23.0649 15.0375 22.8822C14.9765 22.6982 14.7933 22.4921 14.3907 22.3197C14.2854 22.2768 14.1763 22.2422 14.0628 22.2085C14.0321 22.1995 14.001 22.1904 13.9695 22.1812C13.8856 22.1568 13.7992 22.1316 13.7145 22.1038C13.6562 22.0848 13.5983 22.0667 13.541 22.0487C13.3844 21.9998 13.2317 21.9521 13.0848 21.8881C12.765 21.7836 12.4887 21.5829 12.297 21.3158C12.1046 21.0476 12.0077 20.7268 12.0209 20.4015C12.0219 19.6086 12.5422 19.0623 13.2018 18.7699Z" fill="#3A3B7B"/>
<path d="M21.5196 18.6854C21.3923 18.6258 21.2517 18.5975 21.1102 18.603C20.9688 18.6086 20.831 18.6479 20.7093 18.7174C20.5884 18.7864 20.4872 18.883 20.4147 18.9987C20.3482 19.0961 20.3021 19.205 20.2792 19.3194C20.2562 19.4336 20.2568 19.5511 20.2808 19.6651C20.3045 19.8116 20.3307 19.9541 20.3567 20.0946C20.3996 20.3272 20.4414 20.5545 20.469 20.7863L20.47 20.7922C20.5328 21.1557 20.5656 21.5233 20.5686 21.8917L20.5689 21.8969C20.5903 22.2947 20.4491 22.6848 20.1754 22.9844L20.1711 22.9897C20.082 23.0992 19.963 23.1828 19.8272 23.2311C19.6915 23.2795 19.5445 23.2906 19.4026 23.2632C19.2606 23.2359 19.1294 23.1712 19.0236 23.0764C18.9178 22.9815 18.8415 22.8599 18.8034 22.7259C18.7221 22.4435 18.675 22.1529 18.663 21.8601L18.8019 19.7377C18.804 19.71 18.8063 19.6816 18.8087 19.6529C18.814 19.5884 18.8194 19.5227 18.8217 19.4615C18.8249 19.3714 18.8221 19.2787 18.8003 19.191C18.7779 19.1014 18.7353 19.0161 18.6598 18.9434C18.585 18.8716 18.484 18.8185 18.357 18.7824C18.1273 18.7186 17.9331 18.7206 17.7712 18.7865C17.6093 18.8525 17.4983 18.9749 17.4198 19.1163C17.3419 19.2565 17.2919 19.4225 17.254 19.5887C17.2259 19.7121 17.2033 19.8416 17.1819 19.9649C17.1745 20.0073 17.1672 20.049 17.1599 20.0896L17.1597 20.0907C17.0449 20.7668 17.0107 21.4532 17.0578 22.1367C17.0666 22.5061 17.1469 22.8706 17.2946 23.2118C17.4612 23.6521 17.763 24.0335 18.1601 24.3058C18.558 24.5786 19.0329 24.7289 19.5219 24.7369C20.0108 24.7448 20.4908 24.61 20.8981 24.3503C21.3048 24.0909 21.62 23.7192 21.802 23.2844C22.0566 22.7304 22.1761 22.1279 22.1514 21.5229C22.1365 21.0812 22.1114 20.6361 22.0865 20.1932C22.0743 19.976 22.0621 19.7592 22.0511 19.5438C22.0456 19.3278 21.9714 19.1185 21.8384 18.9441C21.7561 18.8339 21.6465 18.745 21.5196 18.6854Z" fill="#3A3B7B"/>
<path d="M26.0222 22.0135C26.0093 22.0292 25.9957 22.0455 25.9815 22.0624C25.8781 21.4895 25.7822 20.9168 25.6861 20.3432C25.6517 20.1374 25.617 19.9307 25.5822 19.7246L25.5783 19.7016L25.5656 19.6817C25.5416 19.6444 25.5392 19.6077 25.5392 19.5295V19.5205L25.5378 19.5115C25.5118 19.3501 25.4357 19.1999 25.3195 19.0805C25.2036 18.9614 25.053 18.8786 24.8874 18.8426C24.7221 18.8035 24.5484 18.8121 24.3882 18.8674C24.2283 18.9226 24.089 19.0218 23.9876 19.1526C23.9033 19.2529 23.8342 19.3642 23.7824 19.4831C23.6648 19.7393 23.5463 19.9961 23.4274 20.2536L23.4253 20.2581C23.1285 20.9009 22.8297 21.5481 22.5395 22.2004L22.5386 22.2025C22.3605 22.6255 22.2135 23.0711 22.067 23.5154C22.0377 23.6041 22.0085 23.6927 21.979 23.7811C21.9261 23.9213 21.9029 24.0702 21.9109 24.2191C21.9012 24.3524 21.9345 24.4853 22.0062 24.6C22.0793 24.717 22.1888 24.809 22.3192 24.8632C22.4574 24.9213 22.612 24.9337 22.7584 24.8983C22.9045 24.8629 23.0343 24.782 23.1272 24.6682C23.2459 24.528 23.3481 24.3752 23.4313 24.2132C23.6771 23.7307 23.912 23.2423 24.1458 22.756C24.2363 22.5679 24.3242 22.3994 24.4242 22.216C24.4311 22.2386 24.4381 22.2606 24.4454 22.2828C24.5502 22.7257 24.7271 23.15 24.9697 23.54C25.0155 23.6227 25.0795 23.6949 25.1571 23.7517C25.2356 23.8092 25.3262 23.8496 25.4226 23.8701C25.519 23.8906 25.619 23.8907 25.7154 23.8704C25.8117 23.8501 25.9026 23.8097 25.9812 23.7524L26.1367 23.6407L27.3436 22.6651L27.2722 23.1016C27.1742 23.7016 27.077 24.2966 26.9737 24.8918C26.9062 25.1556 26.9063 25.4311 26.974 25.6948C27.0034 25.8433 27.0782 25.9799 27.1888 26.0873C27.3004 26.1956 27.4433 26.2692 27.5991 26.2986C27.7548 26.3279 27.9161 26.3117 28.0621 26.2519C28.2059 26.193 28.3283 26.0946 28.4138 25.9691C28.6128 25.7321 28.7367 25.4453 28.7707 25.1426C28.8219 24.7152 28.8798 24.282 28.9377 23.8489C29.0044 23.3497 29.0711 22.8507 29.1274 22.3612L29.1276 22.3597C29.1818 21.8239 29.208 21.2859 29.2062 20.7476C29.2181 20.5775 29.1739 20.408 29.0799 20.2631C28.9855 20.1178 28.8458 20.0048 28.6806 19.9402C28.5088 19.8652 28.3165 19.8452 28.132 19.8831C27.9486 19.9207 27.7827 20.0134 27.6581 20.1478C27.4355 20.3454 27.2267 20.5569 27.033 20.7808L27.0317 20.7823C26.8202 21.0352 26.6102 21.2931 26.4015 21.5493C26.2746 21.7051 26.1481 21.8605 26.0222 22.0135Z" fill="#3A3B7B"/>
</g>
<defs>
<clipPath id="clip0_211_2056">
<rect width="32.7153" height="20.186" fill="white" transform="translate(1.16046 6.95776)"/>
</clipPath>
</defs>
</svg>
