<svg  viewBox="0 0 34 34" fill="none" xmlns="http://www.w3.org/2000/svg">
<g clip-path="url(#clip0_211_2046)">
<path fill-rule="evenodd" clip-rule="evenodd" d="M9.97901 2.88806C13.8233 2.88806 16.9397 6.00447 16.9397 9.84876V2.88806H23.9004C27.7446 2.88806 30.8611 6.00447 30.8611 9.84876C30.8611 13.693 27.7446 16.8095 23.9004 16.8095C27.7446 16.8095 30.8611 19.9259 30.8611 23.7701C30.8611 25.679 30.0927 27.4084 28.8484 28.6659L28.8224 28.6921L28.7993 28.7151C27.5415 29.9612 25.8108 30.7308 23.9004 30.7308C22.003 30.7308 20.2829 29.9716 19.0272 28.7404C19.0109 28.7244 18.9946 28.7083 18.9784 28.6921C18.9632 28.6769 18.948 28.6616 18.9329 28.6462C17.7001 27.3903 16.9397 25.669 16.9397 23.7701C16.9397 27.6144 13.8233 30.7308 9.97901 30.7308C6.13472 30.7308 3.01831 27.6144 3.01831 23.7701V16.8095H9.97901C6.13472 16.8095 3.01831 13.693 3.01831 9.84876C3.01831 6.00447 6.13472 2.88806 9.97901 2.88806ZM15.5476 9.84876C15.5476 12.9242 13.0544 15.4173 9.97901 15.4173V4.2802C13.0544 4.2802 15.5476 6.77333 15.5476 9.84876ZM29.469 23.7701C29.469 20.6947 26.9758 18.2016 23.9004 18.2016C20.825 18.2016 18.3318 20.6947 18.3318 23.7701H29.469ZM4.41045 18.2016V23.7701C4.41045 26.8456 6.90358 29.3387 9.97901 29.3387C13.0544 29.3387 15.5476 26.8456 15.5476 23.7701V18.2016H4.41045ZM18.3318 15.4173V4.2802H23.9004C26.9758 4.2802 29.469 6.77333 29.469 9.84876C29.469 12.9242 26.9758 15.4173 23.9004 15.4173H18.3318Z" fill="#263238"/>
</g>
<defs>
<clipPath id="clip0_211_2046">
<rect width="27.8428" height="27.8428" fill="white" transform="translate(3.01831 2.88806)"/>
</clipPath>
</defs>
</svg>
