<svg viewBox="0 0 28 21" fill="none" xmlns="http://www.w3.org/2000/svg">
<g clip-path="url(#clip0_211_2050)">
<path fill-rule="evenodd" clip-rule="evenodd" d="M7.04589 3.82182L0.0950928 10.7027C1.48538 12.0791 3.07357 13.239 4.80514 14.1465C5.28376 15.4033 6.03398 16.5819 7.05579 17.5935C10.9001 21.3991 17.1329 21.3991 20.9772 17.5935C21.999 16.5819 22.7492 15.4033 23.2278 14.1464C24.9594 13.239 26.5476 12.0791 27.9379 10.7027L20.9927 3.82742C20.9875 3.82228 20.9824 3.81713 20.9772 3.81199C17.1329 0.00635314 10.9001 0.00635314 7.05579 3.81199C7.0525 3.81527 7.04919 3.81854 7.04589 3.82182ZM20.3121 15.3879C18.2865 16.0646 16.1602 16.4112 14.0165 16.4112C11.8728 16.4112 9.74651 16.0646 7.72095 15.3879C7.94042 15.6762 8.18272 15.9528 8.44793 16.2153C11.5234 19.2599 16.5096 19.2599 19.585 16.2153C19.8502 15.9528 20.0926 15.6762 20.3121 15.3879ZM8.59069 5.05232C9.11295 5.39389 9.66828 5.68618 10.2494 5.92447C11.4437 6.41419 12.7237 6.66626 14.0165 6.66626C15.3092 6.66626 16.5893 6.41419 17.7836 5.92447C18.3647 5.68618 18.92 5.39388 19.4423 5.05231C16.4053 2.19157 11.6277 2.19157 8.59069 5.05232Z" fill="#3B4158"/>
</g>
<defs>
<clipPath id="clip0_211_2050">
<rect width="27.8428" height="19.4899" fill="white" transform="translate(0.0950928 0.957764)"/>
</clipPath>
</defs>
</svg>
